<svg xmlns="http://www.w3.org/2000/svg" viewBox="0 0 40 40" width="40" height="40">
  <rect width="40" height="40" rx="9" fill="#0F172A"/>
  <g fill="none" stroke="#1E88E5" stroke-width="1.6">
    <line x1="20" y1="7" x2="31" y2="14"/><line x1="31" y1="14" x2="31" y2="26"/><line x1="31" y1="26" x2="20" y2="33"/><line x1="20" y1="33" x2="9" y2="26"/><line x1="9" y1="26" x2="9" y2="14"/><line x1="9" y1="14" x2="20" y2="7"/>
    <line x1="20" y1="7" x2="20" y2="20"/><line x1="31" y1="14" x2="20" y2="20"/><line x1="31" y1="26" x2="20" y2="20"/><line x1="20" y1="33" x2="20" y2="20"/><line x1="9" y1="26" x2="20" y2="20"/><line x1="9" y1="14" x2="20" y2="20"/>
  </g>
  <g fill="#1E88E5">
    <circle cx="20" cy="7" r="2.4"/><circle cx="31" cy="14" r="2.4"/><circle cx="31" cy="26" r="2.4"/><circle cx="20" cy="33" r="2.4"/><circle cx="9" cy="26" r="2.4"/><circle cx="9" cy="14" r="2.4"/>
    <circle cx="20" cy="20" r="3" fill="#FFFFFF"/>
  </g>
</svg>
